<svg width="16" height="12" viewBox="0 0 16 12" fill="none" xmlns="http://www.w3.org/2000/svg">
<path fill-rule="evenodd" clip-rule="evenodd" d="M9.6454 0.645541C9.84062 0.45024 10.1572 0.450176 10.3525 0.645399L15.3545 5.6454C15.4483 5.73917 15.501 5.86636 15.501 5.999C15.501 6.13163 15.4483 6.25883 15.3545 6.35261L10.3525 11.3536C10.1573 11.5489 9.84068 11.5488 9.64543 11.3535C9.45019 11.1583 9.45022 10.8417 9.6455 10.6464L13.7937 6.49902H0.999023C0.722881 6.49902 0.499023 6.27517 0.499023 5.99902C0.499023 5.72288 0.722881 5.49902 0.999023 5.49902H13.7936L9.64554 1.35265C9.45024 1.15742 9.45018 0.840842 9.6454 0.645541Z" fill="#FE3E6D"/>
</svg>
