<svg width="160" height="40" viewBox="0 0 160 40" fill="none" xmlns="http://www.w3.org/2000/svg">
<g opacity="0.5">
<path fill-rule="evenodd" clip-rule="evenodd" d="M159.57 20.7993V33.8757C159.57 34.4483 159.106 34.9125 158.533 34.9125H154.635C154.062 34.9125 153.598 34.4483 153.598 33.8757V31.8188C151.17 33.6224 148.172 34.6875 144.929 34.6875C136.827 34.6875 130.258 28.0389 130.258 19.8375C130.258 11.6361 136.827 4.9875 144.929 4.9875C148.172 4.9875 151.17 6.05266 153.598 7.8562V6.02432C153.598 5.4517 154.062 4.9875 154.635 4.9875H158.533C159.106 4.9875 159.57 5.4517 159.57 6.02432V18.8859C159.59 19.2005 159.6 19.5178 159.6 19.8375C159.6 20.1574 159.59 20.4749 159.57 20.7898L159.57 20.7993ZM119.737 33.5719C119.737 33.9809 119.405 34.3125 118.996 34.3125H114.402C113.993 34.3125 113.661 33.9809 113.661 33.5719V6.25309C113.661 5.84408 113.993 5.5125 114.402 5.5125H118.996C119.405 5.5125 119.737 5.84408 119.737 6.25309V7.80154C121.995 6.14686 124.736 5.12702 127.706 5.00079C127.714 5.00043 127.723 5.00025 127.731 5.00025C128.063 5.00025 128.332 5.26918 128.332 5.60094V10.665C128.332 10.923 128.13 11.136 127.872 11.1497C123.339 11.3915 119.737 15.1887 119.737 19.8375V33.5719ZM77.3761 8.52568C77.3793 8.52846 77.3825 8.53127 77.3856 8.53412C77.6012 8.72923 77.6178 9.06217 77.4227 9.27774L74.209 12.8289C73.9192 13.1491 73.4313 13.1911 73.091 12.9251C73.0832 12.919 73.0755 12.9131 73.0681 12.9073C71.5899 11.7684 69.782 11.1375 67.8707 11.1375C63.1238 11.1375 59.2757 15.0326 59.2757 19.8375C59.2757 24.6424 63.1238 28.5375 67.8707 28.5375C69.5743 28.5375 71.1963 28.0372 72.5799 27.1172L72.5864 27.1128C72.9333 26.8812 73.4002 26.9567 73.6564 27.2859L76.5202 30.9665C76.5252 30.9729 76.5301 30.9794 76.5348 30.986C76.7544 31.2901 76.6859 31.7147 76.3818 31.9343C73.9209 33.7113 70.9659 34.6875 67.8707 34.6875C59.7683 34.6875 53.2 28.0389 53.2 19.8375C53.2 11.6361 59.7683 4.9875 67.8707 4.9875C71.4037 4.9875 74.7475 6.26027 77.3761 8.52568ZM94.5448 34.6875C86.4424 34.6875 79.874 28.0389 79.874 19.8375C79.874 11.6361 86.4424 4.9875 94.5448 4.9875C102.647 4.9875 109.216 11.6361 109.216 19.8375C109.216 28.0389 102.647 34.6875 94.5448 34.6875ZM94.5448 28.5375C99.2917 28.5375 103.14 24.6424 103.14 19.8375C103.14 15.0326 99.2917 11.1375 94.5448 11.1375C89.7979 11.1375 85.9498 15.0326 85.9498 19.8375C85.9498 24.6424 89.7979 28.5375 94.5448 28.5375ZM144.929 28.5375C149.676 28.5375 153.524 24.6424 153.524 19.8375C153.524 15.0326 149.676 11.1375 144.929 11.1375C140.182 11.1375 136.334 15.0326 136.334 19.8375C136.334 24.6424 140.182 28.5375 144.929 28.5375Z" fill="white"/>
<path fill-rule="evenodd" clip-rule="evenodd" d="M18.7671 0.000115455C17.9967 0.00952613 17.0671 0.131576 16.5966 0.212754C13.7795 0.698065 11.062 1.78938 8.69658 3.40972C5.09686 5.8753 2.32728 9.55748 0.972318 13.7077C-0.621765 18.5908 -0.23983 24.0628 2.00081 28.6603C4.12944 33.0281 7.89299 36.5645 12.384 38.4106C16.1617 39.9633 20.3896 40.307 24.3473 39.418C29.165 38.3358 33.4792 35.4166 36.2983 31.4135C38.4105 28.4143 39.6614 24.8262 39.898 21.1625C39.9167 20.8473 39.8048 20.5381 39.5886 20.3079C39.3725 20.0778 39.0711 19.9468 38.7554 19.9461L38.5465 19.9456C37.1502 19.9423 35.0266 19.9373 33.7441 19.9372C33.1466 19.9358 32.6485 20.3949 32.6009 20.9909C32.5437 21.6724 32.4325 22.3479 32.2662 23.0109C31.4961 26.0827 29.5192 28.8363 26.8565 30.5678C24.1464 32.3299 20.7673 32.9853 17.5982 32.3871C14.4346 31.79 11.5719 29.9463 9.69567 27.364C8.1311 25.2108 7.27451 22.5505 7.27868 19.8936C7.28416 16.4403 8.759 13.0485 11.2564 10.6872C13.3358 8.7212 16.074 7.50368 18.9352 7.26427C19.529 7.21433 19.9858 6.71755 19.9864 6.1211L19.9866 5.77502C19.9877 4.42101 19.9892 2.42018 19.9885 1.14478C19.9888 0.82752 19.8576 0.524184 19.626 0.307299C19.3946 0.0902727 19.0852 -0.00376977 18.7671 0.000115455ZM39.8745 6.43652C39.8745 2.90804 37.012 0.0432918 33.4863 0.0432918C29.9604 0.0432918 27.0979 2.90804 27.0979 6.43652C27.0979 9.96514 29.9604 12.8299 33.4863 12.8299C37.012 12.8299 39.8745 9.96514 39.8745 6.43652Z" fill="white"/>
</g>
</svg>
