<svg width="56" height="56" viewBox="0 0 56 56" fill="none" xmlns="http://www.w3.org/2000/svg" class="logo"><path fill-rule="evenodd" clip-rule="evenodd" d="M26.2739 0.000161578C25.1953 0.0133365 23.894 0.184207 23.2352 0.297856C19.2913 0.977291 15.4869 2.50513 12.1752 4.77361C7.1356 8.22541 3.25819 13.3805 1.36124 19.1908C-0.870471 26.0272 -0.335762 33.6879 2.80114 40.1244C5.78121 46.2394 11.0502 51.1902 17.3376 53.7749C22.6263 55.9487 28.5455 56.4298 34.0862 55.1853C40.831 53.6701 46.8709 49.5832 50.8177 43.9789C53.7747 39.78 55.526 34.7567 55.8572 29.6275C55.8833 29.1862 55.7267 28.7533 55.424 28.431C55.1215 28.1089 54.6995 27.9256 54.2576 27.9245L53.9623 27.9238C52.0074 27.9192 49.0363 27.9123 47.2418 27.912C46.4052 27.9101 45.7079 28.5528 45.6413 29.3873C45.5612 30.3414 45.4055 31.2871 45.1727 32.2153C44.0945 36.5158 41.3269 40.3709 37.5992 42.7949C33.805 45.2619 29.0743 46.1794 24.6375 45.3419C20.2084 44.506 16.2006 41.9248 13.5739 38.3096C11.3835 35.2951 10.1843 31.5707 10.1901 27.8511C10.1978 23.0164 12.2626 18.2679 15.7589 14.9621C18.6702 12.2097 22.5036 10.5051 26.5092 10.17C27.3406 10.1001 27.9802 9.40457 27.9809 8.56954L27.9813 8.07521C27.9827 6.17976 27.9848 3.38517 27.9839 1.60269C27.9843 1.15853 27.8006 0.733857 27.4764 0.430218C27.1524 0.126382 26.7193 -0.00527774 26.2739 0.000161578ZM55.8243 9.01113C55.8243 4.07125 51.8168 0.0606084 46.8808 0.0606084C41.9446 0.0606084 37.937 4.07125 37.937 9.01113C37.937 13.9512 41.9446 17.9618 46.8808 17.9618C51.8168 17.9618 55.8243 13.9512 55.8243 9.01113Z" fill="#fe3e6d"></path></svg>